<?xml version="1.0" standalone="no"?><!DOCTYPE svg PUBLIC "-//W3C//DTD SVG 1.1//EN" "http://www.w3.org/Graphics/SVG/1.1/DTD/svg11.dtd"><svg t="1734088745731" class="icon" viewBox="0 0 1024 1024" version="1.1" xmlns="http://www.w3.org/2000/svg" p-id="6214" xmlns:xlink="http://www.w3.org/1999/xlink" width="200" height="200"><path d="M999.04 175.936H677.952v-38.016c0-51.2-45.184-101.312-96.384-101.312H442.432c-51.136 0-88.64 50.112-88.64 101.312v38.016h-328.768a23.424 23.424 0 0 0 0 46.848h119.872v610.816c0 89.472 68.864 153.728 158.4 153.728h417.408c89.472 0 166.08-64.256 166.08-153.728V222.784h112.256a23.36 23.36 0 0 0 23.104-23.424 23.296 23.296 0 0 0-23.104-23.424z m-598.336-38.016c0-25.536 16.256-54.464 41.728-54.464h139.136c25.6 0 50.88 28.864 50.88 54.464v38.016h-231.744v-38.016z m440.64 695.68c0 63.872-56.64 106.88-120.576 106.88h-417.408c-63.872 0-111.488-43.008-111.488-106.88V222.784h649.472v610.816z" fill="#101317" p-id="6215"></path><path d="M515.904 346.624c-12.8 0-22.72 10.368-22.72 23.168v394.176c0 12.864 9.92 23.232 22.72 23.232 12.8 0 22.784-10.368 22.784-23.232V369.792c0-12.8-9.984-23.168-22.784-23.168M330.432 393.024a23.424 23.424 0 0 0-23.488 23.168v301.44a23.424 23.424 0 0 0 46.848 0v-301.44c0-12.8-10.624-23.168-23.36-23.168M655.168 416.192v301.44a23.36 23.36 0 0 0 46.848 0v-301.44a23.424 23.424 0 0 0-46.848 0" fill="#101317" p-id="6216"></path></svg>