<?xml version="1.0" standalone="no"?><!DOCTYPE svg PUBLIC "-//W3C//DTD SVG 1.1//EN" "http://www.w3.org/Graphics/SVG/1.1/DTD/svg11.dtd"><svg t="1734088766223" class="icon" viewBox="0 0 1024 1024" version="1.1" xmlns="http://www.w3.org/2000/svg" p-id="7343" xmlns:xlink="http://www.w3.org/1999/xlink" width="200" height="200"><path d="M887.466667 189.866667 469.333333 608c-10.666667 10.666667-27.733333 12.8-36.266667 4.266667-8.533333-8.533333-6.4-25.6 4.266667-36.266667L855.466667 157.866667c10.666667-10.666667 27.733333-12.8 36.266667-4.266667C898.133333 164.266667 898.133333 179.2 887.466667 189.866667zM582.4 189.866667 582.4 189.866667 170.666667 192l0 640 661.333333 0L832 441.6l2.133333 0c2.133333-8.533333 10.666667-14.933333 19.2-14.933333 12.8 0 21.333333 8.533333 21.333333 21.333333l0 384c0 23.466667-19.2 42.666667-42.666667 42.666667L170.666667 874.666667c-23.466667 0-42.666667-19.2-42.666667-42.666667L128 192c0-23.466667 19.2-42.666667 42.666667-42.666667l405.333333 0c0 0 0 0 0 0 12.8 0 21.333333 8.533333 21.333333 21.333333C597.333333 179.2 590.933333 187.733333 582.4 189.866667z" p-id="7344"></path></svg>